<?xml version="1.0" encoding="utf-8"?>
<!-- Generator: Adobe Illustrator 19.1.0, SVG Export Plug-In . SVG Version: 6.00 Build 0)  -->
<svg version="1.1" id="Layer_1" xmlns="http://www.w3.org/2000/svg" xmlns:xlink="http://www.w3.org/1999/xlink" x="0px" y="0px"
	 viewBox="-587.5 345.5 60 60" enable-background="new -587.5 345.5 60 60" xml:space="preserve">
<path fill="#BDD4DE" d="M-540.7,389.6v-11.7c0-6.3-3.3-9.2-7.8-9.2c-3.6,0-5.2,2-6.1,3.4v-2.9h-6.8c0.1,1.9,0,20.4,0,20.4h6.8v-11.4
	c0-0.6,0-1.2,0.2-1.7c0.5-1.2,1.6-2.5,3.5-2.5c2.5,0,3.4,1.9,3.4,4.6v10.9L-540.7,389.6L-540.7,389.6z M-568.5,366.4
	c2.4,0,3.8-1.6,3.8-3.5c0-2-1.5-3.5-3.8-3.5s-3.8,1.5-3.8,3.5S-570.9,366.4-568.5,366.4L-568.5,366.4z M-557.5,405.5
	c-16.6,0-30-13.4-30-30s13.4-30,30-30s30,13.4,30,30S-540.9,405.5-557.5,405.5z M-565.1,389.6v-20.4h-6.8v20.4H-565.1z"/>
</svg>
