<?xml version="1.0" encoding="utf-8"?>
<!-- Generator: Adobe Illustrator 19.1.0, SVG Export Plug-In . SVG Version: 6.00 Build 0)  -->
<svg version="1.1" id="Layer_1" xmlns="http://www.w3.org/2000/svg" xmlns:xlink="http://www.w3.org/1999/xlink" x="0px" y="0px"
	 viewBox="0 0 100 100" enable-background="new 0 0 100 100" xml:space="preserve">
<path fill="#BDD4DE" d="M83.3,0H16.7C7.5,0,0,7.5,0,16.7v66.7C0,92.5,7.5,100,16.7,100h66.7c9.2,0,16.7-7.5,16.7-16.7V16.7
	C100,7.5,92.5,0,83.3,0z M30.7,83.7H15.6V38.2h15.1V83.7z M23.2,32L23.2,32c-5.2,0-8.5-3.5-8.5-7.9c0-4.5,3.4-7.9,8.6-7.9
	c5.2,0,8.4,3.4,8.5,7.9C31.7,28.5,28.5,32,23.2,32z M85.3,83.7H70.2V59.4c0-6.1-2.2-10.3-7.7-10.3c-4.2,0-6.7,2.8-7.8,5.5
	c-0.4,1-0.5,2.3-0.5,3.7v25.4H39.1c0,0,0.2-41.2,0-45.5h15.1v6.4c2-3.1,5.6-7.5,13.6-7.5c10,0,17.4,6.5,17.4,20.5V83.7L85.3,83.7z"
	/>
</svg>
