<?xml version="1.0" encoding="utf-8"?>
<!-- Generator: Adobe Illustrator 19.1.0, SVG Export Plug-In . SVG Version: 6.00 Build 0)  -->
<svg version="1.1" id="Layer_1" xmlns="http://www.w3.org/2000/svg" xmlns:xlink="http://www.w3.org/1999/xlink" x="0px" y="0px"
	 viewBox="0 0 122 155" enable-background="new 0 0 122 155" xml:space="preserve">
<path fill="none" stroke="#BDD4DE" stroke-width="6" stroke-miterlimit="10" d="M105.9,151.4H16.4c-6.6,0-12-5.4-12-12v-124
	c0-6.6,5.4-12,12-12h89.5c6.6,0,12,5.4,12,12v124C117.9,146,112.5,151.4,105.9,151.4z"/>
<g>
	<rect x="28.8" y="55.2" fill="none" stroke="#BDD4DE" stroke-width="4" stroke-miterlimit="10" width="12.2" height="12.2"/>
	<line fill="none" stroke="#BDD4DE" stroke-width="4" stroke-miterlimit="10" x1="48.3" y1="67.4" x2="93.4" y2="67.4"/>
</g>
<g>
	<rect x="28.8" y="23.2" fill="none" stroke="#BDD4DE" stroke-width="4" stroke-miterlimit="10" width="12.2" height="12.2"/>
	<line fill="none" stroke="#BDD4DE" stroke-width="4" stroke-miterlimit="10" x1="48.3" y1="35.4" x2="93.4" y2="35.4"/>
</g>
<g>
	<rect x="28.8" y="119.2" fill="none" stroke="#BDD4DE" stroke-width="4" stroke-miterlimit="10" width="12.2" height="12.2"/>
	<line fill="none" stroke="#BDD4DE" stroke-width="4" stroke-miterlimit="10" x1="48.3" y1="131.5" x2="93.4" y2="131.5"/>
</g>
<g>
	<rect x="28.8" y="87.2" fill="none" stroke="#BDD4DE" stroke-width="4" stroke-miterlimit="10" width="12.2" height="12.2"/>
	<line fill="none" stroke="#BDD4DE" stroke-width="4" stroke-miterlimit="10" x1="48.3" y1="99.5" x2="93.4" y2="99.5"/>
</g>
</svg>
