<?xml version="1.0" encoding="utf-8"?>
<!-- Generator: Adobe Illustrator 19.1.0, SVG Export Plug-In . SVG Version: 6.00 Build 0)  -->
<svg version="1.1" id="Layer_1" xmlns="http://www.w3.org/2000/svg" xmlns:xlink="http://www.w3.org/1999/xlink" x="0px" y="0px"
	 viewBox="0 0 6.3 548.9" enable-background="new 0 0 6.3 548.9" xml:space="preserve">
<g>
	<g>
		<g>
			<g>
				<g>
					<path fill="#3F5765" d="M6.5,543.8c-0.2-0.1-0.4,0.6-0.6,0.8l0.2,1.4C6.2,545.2,6.3,543.9,6.5,543.8z"/>
					<path fill="#3F5765" d="M5.9,544.6l-0.3-2.1C5.6,544.3,5.7,544.7,5.9,544.6z"/>
					<path fill="#3F5765" d="M6.3,524.5c0.1,0.6,0.2,1.2,0.3,1.9C6.5,525.7,6.4,525.1,6.3,524.5z"/>
					<path fill="#3F5765" d="M5.7,538.9c0.1-0.2,0.3-0.5,0.4-1.7l-0.4,0.8C5.7,538.3,5.7,538.6,5.7,538.9z"/>
					<path fill="#3F5765" d="M5.7,538.1L5.7,538.1c0-0.9,0-1.5,0-1.8C5.7,536.5,5.7,537,5.7,538.1z"/>
					<path fill="#3F5765" d="M5.7,539.1c0-0.1,0-0.1,0-0.2C5.7,539,5.7,539,5.7,539.1z"/>
					<path fill="#3F5765" d="M5.2,548c-0.2-1.2-0.5-3.8-0.9-1.3C4.6,547.5,4.8,546.1,5.2,548z"/>
					<path fill="#3F5765" d="M5.2,540.1l-0.1,2.2c0.1,0,0.3-0.4,0.4,0.2L5.2,540.1z"/>
					<polygon fill="#3F5765" points="5,539 5.2,540.1 5.2,539.3 					"/>
					<path fill="#3F5765" d="M5.9,528.3c-0.2-1-0.2-2-0.2-3.2c-0.1,1.3-0.1,2.6-0.1,3.8C5.6,529.1,5.9,529.7,5.9,528.3z"/>
					<path fill="#3F5765" d="M5.8,533.1c0-0.1,0-0.2,0-0.2C5.7,533,5.7,533.1,5.8,533.1z"/>
					<path fill="#3F5765" d="M5.6,513.4c0,0.1-0.1,0.1-0.1,0.2c0,0,0,0,0.1,0L5.6,513.4z"/>
					<path fill="#3F5765" d="M5.4,529.2c-0.1,1,0,1.5,0.2,2.1c0-0.7-0.1-1.5-0.1-2.3C5.5,528.9,5.4,528.9,5.4,529.2z"/>
					<path fill="#3F5765" d="M6.1,521.2c-0.1,0.5-0.2,1.1-0.2,1.7C6,522.4,6.2,521.4,6.1,521.2z"/>
					<path fill="#3F5765" d="M5.8,532.5c0,0,0,0.1,0,0.1C6,532.4,5.9,532.4,5.8,532.5z"/>
					<path fill="#3F5765" d="M5.8,532.5c-0.1-0.5-0.2-0.9-0.3-1.3c0,0.6,0.1,1.1,0.1,1.6C5.8,532.7,5.8,532.6,5.8,532.5z"/>
					<path fill="#3F5765" d="M2.9,509.8c0.4,0.2,0.8,2.7,0.3,4.9c0.3,2.1,1.6,0.7,2.3-1.1c-0.2-0.1-0.3-0.1-0.6-2.3
						c-0.2,0.8-0.5,4.9-0.9,3c-0.2-2.9,0.1-2.4,0.3-3.8c-0.5,1.2-0.7-3.7-1.4-3.1l0.3,2.6C3.2,510.1,3,509.1,2.9,509.8z"/>
					<path fill="#3F5765" d="M5.5,517.8l0,0.9c0.1-1,0.2-1.8,0.5-3.1c-0.2-1.5-0.3-1.8-0.5-1.9l-0.1,4.5L5.5,517.8z"/>
					<path fill="#3F5765" d="M5.6,522.8c-0.4-0.7-0.6-2.9-1.1-1.6c0,2.7,0.4,1.9,0.5,3.5C4.9,520.4,5.3,525.9,5.6,522.8
						c0,0.9,0,1.6,0.1,2.4c0.1-0.8,0.1-1.5,0.2-2.2c0,0,0,0.1,0,0.1l0,0c0,0,0,0,0,0c-0.1,0.2-0.1,0.2-0.1,0c0,0,0-0.1,0-0.1
						C5.7,522.9,5.6,522.8,5.6,522.8c0.1-1.2,0.1-0.2,0.2,0.2c0,0,0,0,0.1,0.1c0,0,0,0,0,0l-0.2-4.3C5.5,519.6,5.5,520.7,5.6,522.8z
						"/>
					<path fill="#3F5765" d="M3.4,544.4c0-0.1,0.1-0.1,0.1-0.1C3.5,543.9,3.4,543.8,3.4,544.4z"/>
					<path fill="#3F5765" d="M3.7,542.6c0.1,0.3,0.2,0.6,0.2,1.6c-0.1,0.9-0.2,0-0.3,0c0.1,0.6,0.3,2.1,0.5,0.2L4,544.1
						c0.1-1.7,0.7-4,0.7-3.7C4.3,541,4.1,541.4,3.7,542.6z"/>
					<path fill="#3F5765" d="M4.5,532.6L4.3,529l-0.4,1.8l0.2-0.1C4.1,532.7,4.3,532.3,4.5,532.6z"/>
					<polygon fill="#3F5765" points="5.9,513 6.3,513.5 5.7,511.4 					"/>
					<polygon fill="#3F5765" points="5.8,508.3 6.2,508.5 6,507.3 					"/>
					<path fill="#3F5765" d="M0.9,245.5l-0.1-1.1C0.8,244.9,0.9,245.3,0.9,245.5z"/>
					<path fill="#3F5765" d="M0.9,253.1l0.2,0.2C1,253,0.9,252.8,0.9,253.1z"/>
					<path fill="#3F5765" d="M5.8,393.9c0.4-1.5,0.9-3.2,0.5-3.1l-0.4,0.5C5.9,392.4,5.9,393.2,5.8,393.9z"/>
					<path fill="#3F5765" d="M3.2,315.6c0,0.1-0.1,0.3-0.1,0.4c0.1,0.4,0.3,0.7,0.4,1C3.4,316.6,3.3,316.1,3.2,315.6z"/>
					<path fill="#3F5765" d="M1.4,314.5l0.3-2C1.6,312.9,1.5,313.6,1.4,314.5z"/>
					<path fill="#3F5765" d="M0.4,203.9L0,202.6C0,204.5,0.2,203.7,0.4,203.9z"/>
					<path fill="#3F5765" d="M5.6,460.6c0.2-1.3,0.2-2.4,0.3-3.3C5.7,458.9,5.3,460.2,5.6,460.6z"/>
					<path fill="#3F5765" d="M5.5,248.5c-0.1-0.6-0.2-0.9-0.3-0.9C5.3,248.3,5.4,248.6,5.5,248.5z"/>
					<path fill="#3F5765" d="M5.9,453.5c0,0.2-0.1,0.5-0.1,0.7c0.1,1,0.1,1.9,0.1,3.1C6.1,456.1,6.2,454.8,5.9,453.5z"/>
					<path fill="#3F5765" d="M0.8,52.8c0-0.1,0-0.2,0.1-0.3C0.8,52.5,0.8,52.6,0.8,52.8z"/>
					<path fill="#3F5765" d="M5.2,8.8c0,0.4,0,1.1,0,1.8C5.2,10.3,5.2,9.8,5.2,8.8z"/>
					<path fill="#3F5765" d="M6,489.6C6,490.6,6,489.7,6,489.6L6,489.6z"/>
					<path fill="#3F5765" d="M4.3,494.4c0-0.2-0.1-0.4-0.2-0.4C4.2,494.1,4.2,494.2,4.3,494.4z"/>
					<path fill="#3F5765" d="M3.2,443.7C3.2,443.6,3.2,443.6,3.2,443.7C3.1,443.9,3.1,443.8,3.2,443.7z"/>
					<path fill="#3F5765" d="M5.8,491.1c0.1-0.4,0.1-0.8,0.1-1.3C5.9,490,5.9,490.4,5.8,491.1z"/>
					<path fill="#3F5765" d="M6,490.9c0,0.3,0,0.6,0,0.9C6,491.9,6.1,491.7,6,490.9z"/>
					<path fill="#3F5765" d="M6,488.2c0,0.6,0,1.1,0,1.6c0-0.2,0.1-0.3,0.1-0.2C6,489.3,6,488.9,6,488.2z"/>
					<path fill="#3F5765" d="M2,133.8c0-0.1,0-0.1,0-0.2C1.8,132.5,1.8,133,2,133.8z"/>
					<path fill="#3F5765" d="M1.3,368.2c0,0,0,0.1,0,0.1C1.3,368.3,1.3,368.2,1.3,368.2L1.3,368.2z"/>
					<path fill="#3F5765" d="M0.9,364.7c0.5,1.5,0.5,2.4,0.4,3.5l1.3-1.2L0.9,364.7z"/>
					<path fill="#3F5765" d="M0.8,227.2l-0.4,2.5c-0.6-3-0.4-5.2-1-2.8c1.4,0.4,0.1,9.7,1.5,10l-0.3,1.6c0-0.5-0.1-0.5-0.1-1
						c-0.7,3.2,1,2.4,0.8,6.5c-0.1,1.4-0.3,2.4-0.5,1.5l0.3,3.2c0,0.9-0.3,0.7-0.2-0.2l0.1,4.9l0,0c0.2,0.7,0.5,2.3,0.7,3
						c-0.2,1.2-0.1-0.6-0.3-0.3l0.3,2.7c-0.4,1.1-0.7-1.1-0.6-3c-1.4,2.5,0.3,2.2-0.5,7.7l-0.2-2.5c-0.8,1.6-0.5,3.6-1,6.5
						c0.3-0.7,1.2-5.8,1.5-2.8c-0.1,0.8-0.2,1.9,0.1,3.5c-0.5,0-0.4,1.6-0.3,3.5l-0.6-0.1c0.2,2.1,0.5,1.9,0.8,3.2
						c-0.1,2.3-0.6,2.8-1,3.4c-0.1,3.7,0.8-2.6,0.9,1.8c-0.2,3.1,0,5.3,0.4,9c-0.2,2.2-0.4-0.4-0.6,0.4l0.5,1.9
						c0,0.5-0.2,0.3-0.2,0.2c0.2,1.6,0.6,0.1,0.8,2.7c0.7,0.7-1,5.2-0.2,8.4c-0.2,0.8-0.4-0.4-0.6-0.1c0.5,4.3,0.4,3.7,1.1,7.3
						l-0.4,3c0.5-2.2,1,0.6,1.5,3.1c0.2-0.8,0.4-1.5,0.5-1.9l0.3,4c-0.1,0.5-0.3,0.1-0.6-0.6c0.1,0.3,0.1,0.5,0.2,0.7
						c-0.2,1.4-0.6,0.7-1-0.3c0.1-0.5,0.3-1,0.4-1.4c-0.4-1-0.8-1.9-1.2-1.7c0.1,0.3,0.1,0.8,0.2,1.3c-0.1-0.3-0.2-0.4-0.3-0.3
						c-0.1,0.1,0.1,0.5,0.2,1.2l-0.7,0.9l0.3,0.2l-0.4,5.2c0.7,3.7,1.8,6.9,2.1,12.8c-0.5-1.5-0.9-0.3-1.5-0.4
						c0.7-1.6-0.3-4.6-0.1-7.6c-0.1,1.6-0.4,1.2-0.5,0.8l0.6,5.5c-0.5-0.1-0.4,1.2-0.6,2.6c1-1.1,0.7,4.1,1,6.3
						c-0.3,0.1-0.7-0.4-0.6-3.1c-0.8,3,1.2,3.9,0.5,6.8c0-0.7,0-1-0.1-1.3c0.3,1.5,0.1,5.3-0.2,4.4l0-0.7c-0.1,4.4,0,13.4,0.8,14
						c-0.1,0-1-0.6-1.2-0.8l2.9,7.8c-0.7-0.7-2.5,2-2.9-1.7c-0.1,1-0.2,2.3,0,4.5c0.1-0.7,1.1-1.8,1.1-0.8c-0.8,2.7-0.4,1.9-1.1,5.2
						c0.2-1.1,1.3,0.1,1.3,1.8c-0.2-0.3-1.1,0.1-1.2-0.5l1.1,4.2c-0.2-1-1-0.2-1.3,0.8c0.2-0.4,0,3.6,0.1,4.8l0.3-1.8
						c-0.2,4.7,1.6,4.7,1.5,9.4c-0.2-0.6-1.4-1.4-1.6,1c0.6,1.1,2.8,4.9,3.2,9l-0.3,0.8l0.4,3.2c-0.9-2-2.7-7.6-3.4-10.6
						c-0.3,1.8-0.4,0.5-0.4,3.2c-0.3,0.9-0.5-1.4-0.5-2.2l-0.2,6.2c0.7-0.3,0.7,4.7,1.2,4.5l-0.7-6.7c0.7-0.3,1.9,3.9,1.8,8.3
						c-0.3,1.1-1.2-0.8-1.4-0.7c0.2,0.6,0.4,4.2,0.3,4.6l-0.4-1.9c-0.3,2.4,0.9,4,0.2,6.9c0,1-0.9,3-0.5,3.2c0.8-1.7,3.1-2,3.7-0.9
						c-0.1,0.4-0.7,5.3-1.1,6.5c-0.6,1.7-1.4-2.5-2-1.1c0.2,0.1,0.4,1,0.5,1.4c-0.2,1.1-0.6-0.4-0.5,1.9c0.7,0.4-0.1,4.7,0.6,1.1
						c0.2,2.3-0.1,2.4-0.1,5.1c0.4-0.8,1.5,2.4,1.7,4.6c-0.2-0.1-0.4,0.4-0.5,0.6c-0.1,4.6-0.4,7.1-0.4,11.4
						c-0.2,0.4-0.4,2.5-0.7,1.6c0.1,0.6,0.4,1.2,0.4,2.5c-0.6,2.6-0.1-3-0.8-1c0.4,0.2,0.5,3.4,0.8,5.3c0.6-0.6,0.1-4.4-0.1-6.3
						c0.8,0,1.7,3.3,2.1,7.8c0.2,3.6-0.5,1.6-0.4,2.2C3.9,474,5.6,473,5,478.6c-0.5,2.2-1.1,0.1-1.5,0.6c-0.2-2.9,0.3-4.5,0.3-6.5
						l-0.3,2.4c-0.2-0.9-0.3-2.9-0.2-3.9c-0.5,1.9-0.1,11.4-0.5,16.6c0.2,0.9,0.4,2.5,0.6,1.8l-0.1-1.6c0.4-1.5,0.6,3.1,0.8,1
						c0.3,2.2,0.8,4.7,0.5,7.8l-0.6,0.6c0.2-0.1,0.4-2,0.2-2.9c0.3,1.3-0.8,4.8,0,6.2l0.4-2.2c0.3,2.2,1,5,0.8,7.7
						c0.6-1.3-0.1-0.6,0.6-2.6c-0.9,1.7,0-7-0.9-4.3c0.8-2,0.3-3.5,1-6.1C6,493.2,5.9,494,6,491.7c-0.1-0.1-0.1-0.4-0.2-0.5
						c0-0.1,0-0.1,0-0.2c0,0,0,0.1,0,0.1c0-0.1,0-0.1,0,0c-0.1,0.6-0.2,1-0.3,1.2c-0.5-1.1-0.4-4.8-0.7-6.1c0.1-1.4,0.2,0.6,0.4-0.2
						l-0.4-1.9c0.4-0.2,0.7-3.6,1-0.4l0-2.9c0.3-1.7,0.4-4.1,0.2-5.5c0.1-1.4-0.5-3.5-0.1-2.3l-0.3-4.6l0.1,0
						c0.1-4.5-0.7-9.3,0.1-14.4c-0.1-1.5-0.3-3.1-0.1-5.6l0.4-0.5c-0.1-1.9,0.4-5.8,0-6.7c1-2.1,0.2-9.4,0.4-12.9L6,428.4
						c0-2.4-0.1-4.6-0.3-7.5l-0.4,0.2c-0.4-2.5,0.3-6.5,0.3-10.5c0.2,0.3,0.1,1.3,0,2c1-4.8-0.7-10,0-14.4c-0.2-1.1-0.1-1.9,0-2.6
						c0,0.1,0,0.2,0,0.3c0-0.1,0-0.3,0-0.4c0.1-0.5,0.2-1,0.2-1.5c-0.1,0.5-0.2,0.9-0.2,1.3c0-0.8-0.1-2.1-0.2-3.3l0.5-0.5
						c0-0.1,0-0.2,0-0.3c0.2-1.2-0.2-1-0.6-0.3c-0.1-0.6-0.2-1.2-0.3-1.6c0.8-1-0.3-3.2,0.6-4.6c-0.4-0.8-0.3-6.2-1.2-6.9
						c0.1,0,0.2-0.4,0.2,0.3c0.1-1.4,0.2-2.8,0-4l0.6-0.6l-0.8-3c0.4-1.8,0.6-2.6,1.1-0.8c-0.7-4.4-0.3-3.6-1-7.3l0.4,0.2
						c0-1.3-0.5-3.5-0.2-4.3c0.8-3,0.1-14.7,0.8-22.4c-1.2,1.5,0.5-3.6-0.4-3.9c0.3-0.4,0.4-1.5,0.7-0.3c-0.3-3.9,0.4-5.9-0.3-8.5
						c0.3-0.4,0.4,0.8,0.6,0.4c-0.1-0.3-0.2-1.2-0.1-1.6c0.2-0.4,0.2,0.6,0.4,1.2c0-4-0.9-4.4-1.7-4.7c0.4-2,0.3-3-0.2-4.5
						c0.3-0.7,0.5-1.9,0.6,0.6c0-1.4,0.4-8.5-0.3-8.6c0.2-0.4,0-1.9,0-2.3c0-3.1,0.1-3.4,0-6.5L4.5,298c-0.8-1.2-0.2-2.5-0.3-5
						l0.1,0.1c0.6-5.7-0.3-2.4,0.4-8l-0.5,0.3c-1-0.5,0.6-5,0.2-8.2l-0.3,1.2c-0.4-1.8,1.4-5,1.5-6.7c0.1-0.4,0.1,0.6,0.2,1.2
						c0.6-4.7-0.6-0.6-0.8-4.1c0.3-0.6,0.9,0.8,0.9-1.5c0.3-1.2-1.1-6.8-0.5-10c-0.3,0.7-0.5,1.4-0.7-0.2c-0.1-2.5,1-6.7,0.2-8.9
						c0.1-0.3,0.1-0.4,0.2-0.4c-0.2-1.9-0.4-6.1-0.8-7.3c1.7-1.7-0.8-11.8,0.7-11.7l-0.1-5.8l0.2,0.2c0.1-3.7-0.3-5-0.6-6.3
						c0.1-0.9,0.2-0.2,0.3-0.2c0.3-5.4,0.2-6-0.5-10.5l0.5-0.5c-0.3-1.2,0.8-7.9,0.2-13.2c0.1,0.1,0.2,0.2,0.2,0.6
						c-0.6-6,1.4-14.3-0.4-16.5l-0.4-4c-0.1,5.1-0.8-0.8-1.1,1.3c-0.1-2,0.5-5.2,0.6-2.7l-0.1,0.4c0.9,0.9,0.3-6.4,1-6.2
						c0-10.1,0.5-19.9,0.5-29.3l-0.7,1.1l0-3.3c0.2-0.9,0.6-1.2,0.5,1.2c0.4-1.2-0.3-3.9-0.5-4c0.3-4.6,0.9,1.8,0.9,0.4l-0.1-1.9
						l-0.1,0.4c-0.3-1.6-0.6-1.7-0.6-4.5c0.1-1.8,0.5-0.9,0.5-1.6c0.1,0,0.1-0.2,0-1.1l0.1-4.1L4.9,120c-0.3-1.8,0-3.9-0.6-2
						c1-2.8,0.4-15.5,0.7-17.2c-0.4-2.6-0.4-5.1-0.4-8.3c-0.1,0.8-0.8,1.3-0.7-1.5c1.3,1,0.6-5,1.5-7.2c-0.6,2-0.2-7.7-1.1-4.6
						c0.1-2.3,0.5-0.1,0.8-1.9c-0.5-5.4,0.3-11.9,0.2-18.5c-0.2-0.1-0.4,1-0.7-0.4L5.5,55c-0.1-1.3-1-1.2-0.4-3.6
						c-0.1,0.3-0.4,0.8-0.4,0c0.9-13-0.7-26.7,0.9-39.9c-0.3,1.8-0.4,0.6-0.4-0.8c-0.1,0.9-0.4,0-0.7,0.2l0.7-5.5
						c-0.7-1,0-5.9-0.7-6.5l0.1,1.8C3.9-1.9,3,3.8,2,3.4C2.9,6,0.8,10.3,2,14.6c-0.2,0.9-0.3-0.8-0.5-0.3c0.4,1.1,0.5,2.4,0.3,4.8
						l-0.1-0.3c0.1,6.8-0.3,9.8-0.6,17.5l0.5-0.6c-0.1,1.7-0.2,2-0.3,2.8c0.7,1.9,0-4.6,0.8-2.9c-1,2.2,0,11.6-1.1,13.1
						c0,2.5,0.5-0.7,0.5,1.8l-0.3,0.7l0.4,0.6c-0.1,1.7-0.4,2.5-0.7,2.6c0-0.4-0.1-1.1-0.1-1.6c-0.3,2.2,0.1,6.1,0,6.8L1,57.2
						c0.3,6.9-0.1,15.4,0.5,22.1l0.2-0.5c0.4,5.1-0.2,4.1-0.1,9.7l-0.1-0.2c0.2,1.1,0.3,2.6,0.3,4.2c-0.3-1.4-0.5,2.7-0.8,0.8
						c0.4,5.5,0.3,2.7,1.2,6.4l-0.4,0.8c0.3,1.2,0.5,1.4,0.6,4.2c-0.3-2.3-0.6,1.8-1-0.8c-0.8,5.9,0.8,8.7-0.4,11.4
						c1,2.7,0.6-5.1,0.8-3.6c0.3-1.3,0.8,2.2,0.7,4.1c0,1.9-1.3,3.2-1.3,7.9c0-0.5-0.1-0.5-0.1-1c-0.3,1.8,0.4,3.5-0.1,5.6
						c0.6,1.2,0,2.8,0.8,3.2l-0.2-4.3c0.2,2.5,1.1,4.8,0.7,8.8c-0.2-0.3-0.4-1.5-0.5-2.3c-0.2,1.2,0.2,2.3-0.1,3.5
						c-0.8-0.4-0.2-5.3-0.8-7.9c-0.3,1.3,0.6,5-0.3,3.7c1.1,1.9-0.1,4.7,0.7,7.9L1,140.7c0.1,0.5,0.3,1.6,0.3,2.5l-0.6-1.7
						c0.5,2.6-0.5,5-0.2,7.5c0-5.2,0.6-1.2,0.9-3.4c0.6,6.4-1.2,3.7-1,10.9c-0.1-1,0.3-3.7,0.5-2.1c-0.1,1.4-0.3,3.2-0.5,4
						c0.1,4.8,0.5-0.7,0.8,1.3c-0.6,1.6,0.2,2.3,0.4,4.4l-0.5,0c-0.3,5.4,1,1.4,0.6,6.3l-0.7-2.1l0.2,2.5l-0.5-0.5
						c0.4,2.8,0.3,3.6,0.1,6.4c0.3-0.6,0.9,0.4,0.9,2.8c-0.3,1.6-0.5-0.9-0.4,2.5c-0.3-0.8-0.7-1.6-0.2-3.1
						c-0.2-0.2-0.3-0.8-0.5-0.9c-0.3,1.8-0.1,4.4-0.1,5.7c0-0.5,0-1,0.1-1.3l0.7,4.9c-0.2,0.8-0.3,0.2-0.5-0.5
						c0.1,1,0.3,1.7,0.3,3.2c-0.4-0.4-0.8-0.3-1-2.4l0.4,4.7c-0.2,0.3-0.5,2.4-0.6,1.8c-0.2,2.6,0.8,6.4,0.5,9.9
						c0.1,0.2,0.1,0.5,0.2,1.3c-0.1,3.3-0.6,6.1,0,10L0,217.4c0.2,3,0.9-3,1.2,2.1c0.2,3.6-0.6,1.3-0.8,2.6c0.4,1.8,1.1,4.8,0.5,8.1
						C0.7,229.1,0.8,228.3,0.8,227.2z M1.1,264.5c-0.1-0.7-0.4-2.2-0.1-2.7C1.5,262.6,1.2,263.2,1.1,264.5z M2.2,321.1
						c-0.2-0.5-0.1-1.4,0.1-2.3C2.4,319.5,2.4,320.2,2.2,321.1z M5.6,478.8C5.6,478.7,5.6,478.7,5.6,478.8
						C5.8,477.1,5.7,477.6,5.6,478.8z M5.4,482.1c0.1,0.3,0.1,0.3,0.2,0.2c-0.1-0.2-0.1-1-0.1-1.8C5.4,480.7,5.3,481.1,5.4,482.1z
						 M5.2,123.2l-0.1,0.7C4.9,122.4,5.1,122.8,5.2,123.2z"/>
					<path fill="#3F5765" d="M1.6,314.7c0.1-0.2,0.2-0.3,0.3-0.3C1.8,314.1,1.7,314.1,1.6,314.7z"/>
					<path fill="#3F5765" d="M0.5,204.1c0,0,0-0.1,0-0.1c0-0.1-0.1-0.1-0.1-0.1L0.5,204.1z"/>
					<path fill="#3F5765" d="M1.3,430.3c0.1-0.7,0.2-1.1,0.2-1.3C1.4,429,1.3,429.3,1.3,430.3z"/>
					<path fill="#3F5765" d="M6.2,499.8l-0.1-2.1c0,1-0.1,1.4-0.2,1.9C6,499.5,6.2,499.1,6.2,499.8z"/>
					<path fill="#3F5765" d="M3.2,518.4c0.1,0.3,0,0.7,0.1,1l0.2-0.1C3.5,517.9,3.3,517,3.2,518.4z"/>
					<path fill="#3F5765" d="M4.6,501.8c-0.4,0.2-0.3,1.5-0.2,3c0-0.1,0-0.2,0-0.3C5,505,4.8,503.4,4.6,501.8z"/>
					<path fill="#3F5765" d="M4.4,505.2c0,0.5,0,0.9,0,1.4C4.7,506.7,4.5,506,4.4,505.2z"/>
					<path fill="#3F5765" d="M5.7,486.3c-0.1,0.7,0.5,0.4,0.4,0.8C6.5,488,5.4,482.4,5.7,486.3z"/>
					<polygon fill="#3F5765" points="3.3,503 3.8,502.5 3.4,501.6 					"/>
					<path fill="#3F5765" d="M3.6,491.2l-0.1,2.4c0.1,0,0.1,0.3,0.2,0.6C3.7,492.7,3.8,491.1,3.6,491.2z"/>
					<path fill="#3F5765" d="M3.7,494.2c0,0.8,0,1.5,0.1,1.9C3.8,495.7,3.7,494.8,3.7,494.2z"/>
					<polygon fill="#3F5765" points="3.1,499.7 3.2,499 3.3,497.3 					"/>
					<path fill="#3F5765" d="M3.7,465.4l-0.1-2.6c-0.2-0.3-0.3,0.4-0.2,1.4C3.5,464.8,3.6,465.8,3.7,465.4z"/>
					<path fill="#3F5765" d="M2.4,473.3c0.1-0.7,0.2-0.8,0.4-1.2l-0.6-0.1L2.4,473.3z"/>
					<path fill="#3F5765" d="M2.2,465.7c-0.2-0.3-0.5-3.8-0.5-0.5C1.9,465.5,2.1,468.1,2.2,465.7z"/>
					<polygon fill="#3F5765" points="3,426.3 3,427 4,426.9 					"/>
					<path fill="#3F5765" d="M0.6,391.6c-0.2,3.1,0.6,0.7,0.3,3.5c0.2,0.7,0.2-2.3,0.5-1.5C1.1,391.7,1.2,390.7,0.6,391.6z"/>
					<path fill="#3F5765" d="M1.3,393.6c0,0.3,0.1,0.6,0.2,1C1.4,394,1.4,393.7,1.3,393.6z"/>
					<polygon fill="#3F5765" points="5.7,1.5 5.9,-0.5 5.6,0.8 					"/>
					<path fill="#3F5765" d="M-0.2,270l0.2,0.2c0.2-0.3,0.2-0.8,0.2-1.7L-0.2,270z"/>
					<polygon fill="#3F5765" points="0.3,243 0.2,243.5 0.8,242.6 					"/>
				</g>
			</g>
		</g>
	</g>
</g>
</svg>
