<?xml version="1.0" encoding="utf-8"?>
<!-- Generator: Adobe Illustrator 19.1.0, SVG Export Plug-In . SVG Version: 6.00 Build 0)  -->
<svg version="1.1" id="Layer_1" xmlns="http://www.w3.org/2000/svg" xmlns:xlink="http://www.w3.org/1999/xlink" x="0px" y="0px"
	 viewBox="0 0 886.1 7.2" enable-background="new 0 0 886.1 7.2" xml:space="preserve">
<g>
	<g>
		<g>
			<g>
				<g>
					<path fill="#3F5765" d="M3.9,4.7C1.9,4-3.9,4.8-7.8,4.6l-0.6-0.2L-10.2,5C-5.5,4.9,0.6,4.5,3.9,4.7z"/>
					<path fill="#3F5765" d="M15.5,6.2C14.8,6,18,6,12.8,6.2c0.3,0,0.3,0,0.5,0.1C13.8,6.2,14.4,6.2,15.5,6.2z"/>
					<path fill="#3F5765" d="M13.3,6.2C11,6.2,14.8,6.5,13.3,6.2L13.3,6.2z"/>
					<path fill="#3F5765" d="M23.9,6.1l-3,0.2c0.6,0.2,3.3,0.2,2.3,0.3C26.3,6.5,25.6,6.3,23.9,6.1z"/>
					<path fill="#3F5765" d="M26.7,5.6l-1.6,0.1C25.4,5.7,25.9,5.8,26.7,5.6z"/>
					<path fill="#3F5765" d="M21.9,5.9l3.3-0.2c-0.4-0.1-0.5-0.3-1.5,0.1C23.9,5.5,23.3,5.7,21.9,5.9z"/>
					<path fill="#3F5765" d="M20,5.8c-1.7-0.2-3.9-0.3-0.8-0.5C13.4,5.4,14.2,5.9,20,5.8z"/>
					<path fill="#3F5765" d="M5.1,4L2.8,3.7L0.8,4C1.8,3.9,5.2,4.2,5.1,4z"/>
					<path fill="#3F5765" d="M42.6,6.5c0.2-0.2-1-0.4-1.2-0.6L39.2,6C40.3,6.1,42.5,6.2,42.6,6.5z"/>
					<path fill="#3F5765" d="M41.4,5.9l3.3-0.3C41.8,5.6,41.2,5.7,41.4,5.9z"/>
					<polygon fill="#3F5765" points="27.3,4.8 21.8,5.3 28.3,4.8 					"/>
					<polygon fill="#3F5765" points="55.4,6.5 53.5,6.8 56.8,6.3 					"/>
					<path fill="#3F5765" d="M63.8,6.4c-1.4,0.3,1.9,0.5,0.4,0.7c2.3-0.1,4.2-0.3,6-0.5C68.4,6.7,66.4,6.7,63.8,6.4z"/>
					<path fill="#3F5765" d="M73.2,6.3c-0.9,0.1-1.9,0.2-3,0.3C71.2,6.5,72.2,6.4,73.2,6.3z"/>
					<path fill="#3F5765" d="M50.4,5.7C50.7,5.8,51.2,6,53,6.1l-1.3-0.4C51.3,5.7,50.9,5.7,50.4,5.7z"/>
					<path fill="#3F5765" d="M51.7,5.7L51.7,5.7c1.5,0,2.5,0,2.9,0C54.2,5.7,53.3,5.7,51.7,5.7z"/>
					<path fill="#3F5765" d="M50.1,5.7c0.1,0,0.2,0,0.3,0C50.3,5.6,50.2,5.6,50.1,5.7z"/>
					<path fill="#3F5765" d="M36,5.2c2-0.2,6-0.5,2.1-0.9C36.7,4.6,38.9,4.8,36,5.2z"/>
					<path fill="#3F5765" d="M48.5,5.1L44.9,5c0.1,0.1,0.7,0.3-0.3,0.4L48.5,5.1z"/>
					<polygon fill="#3F5765" points="50.2,5 48.5,5.1 49.8,5.2 					"/>
					<path fill="#3F5765" d="M67.1,5.8c1.5-0.2,3.2-0.2,5.1-0.2c-2-0.1-4.1-0.1-6.1-0.1C65.8,5.6,65,5.9,67.1,5.8z"/>
					<path fill="#3F5765" d="M59.6,5.7c0.1,0,0.2,0,0.3,0C59.8,5.7,59.6,5.7,59.6,5.7z"/>
					<path fill="#3F5765" d="M90.8,5.6c-0.1,0-0.2-0.1-0.3-0.1c0,0,0,0-0.1,0.1L90.8,5.6z"/>
					<path fill="#3F5765" d="M65.8,5.4c-1.5-0.1-2.4,0-3.3,0.2c1.1,0,2.3-0.1,3.6-0.1C66.3,5.4,66.3,5.4,65.8,5.4z"/>
					<path fill="#3F5765" d="M78.4,6.1c-0.8-0.1-1.7-0.2-2.6-0.2C76.5,6,78.1,6.2,78.4,6.1z"/>
					<path fill="#3F5765" d="M60.5,5.8c-0.1,0-0.1,0-0.2,0C60.7,5.9,60.7,5.9,60.5,5.8z"/>
					<path fill="#3F5765" d="M60.5,5.8c0.8-0.1,1.4-0.2,2-0.3c-0.9,0-1.8,0.1-2.5,0.1C60.2,5.7,60.3,5.8,60.5,5.8z"/>
					<path fill="#3F5765" d="M96.4,2.9c-0.3,0.4-4.3,0.8-7.7,0.3c-3.4,0.3-1.2,1.6,1.8,2.3c0.1-0.2,0.1-0.3,3.6-0.6
						c-1.2-0.2-7.8-0.5-4.8-0.9c4.6-0.2,3.8,0.1,6,0.4c-1.9-0.5,5.9-0.7,4.9-1.4l-4.1,0.3C96.1,3.2,97.6,3,96.4,2.9z"/>
					<path fill="#3F5765" d="M83.9,5.5l-1.4,0c1.6,0.1,2.8,0.2,5,0.5c2.4-0.2,2.9-0.3,3.1-0.5l-7.1-0.1L83.9,5.5z"/>
					<path fill="#3F5765" d="M76,5.6c1.1-0.4,4.6-0.6,2.5-1.1c-4.2,0-3,0.4-5.5,0.5C79.8,4.9,71,5.3,76,5.6c-1.4,0-2.6,0-3.7,0.1
						c1.2,0.1,2.4,0.1,3.5,0.2c-0.1,0-0.1,0-0.2,0l0,0c0,0,0,0,0,0c-0.3-0.1-0.4-0.1-0.1-0.1c0,0,0.1,0,0.1,0
						C75.7,5.7,75.8,5.6,76,5.6c2,0.1,0.3,0.1-0.3,0.2c0,0-0.1,0-0.1,0.1c0,0,0,0,0,0l6.8-0.2C81,5.5,79.2,5.5,76,5.6z"/>
					<path fill="#3F5765" d="M41.7,3.4c0.2,0,0.2,0.1,0.2,0.1C42.4,3.4,42.6,3.4,41.7,3.4z"/>
					<path fill="#3F5765" d="M44.5,3.6C44,3.7,43.6,3.9,42,3.8c-1.4-0.1,0-0.2-0.1-0.3c-1,0.1-3.4,0.3-0.4,0.5l0.5-0.1
						c2.7,0.1,6.3,0.7,5.8,0.7C47.1,4.3,46.4,4,44.5,3.6z"/>
					<path fill="#3F5765" d="M60.4,4.5l5.7-0.2l-2.9-0.4l0.1,0.2C60.1,4,60.8,4.3,60.4,4.5z"/>
					<polygon fill="#3F5765" points="91.5,5.8 90.7,6.3 94,5.7 					"/>
					<polygon fill="#3F5765" points="98.8,5.8 98.6,6.2 100.5,6 					"/>
					<path fill="#3F5765" d="M515.4,1.1l1.7-0.1C516.3,1.1,515.8,1.1,515.4,1.1z"/>
					<path fill="#3F5765" d="M503.3,1.1L503,1.3C503.6,1.2,503.8,1.1,503.3,1.1z"/>
					<path fill="#3F5765" d="M280.1,5.9c2.4,0.4,5.1,0.9,4.9,0.5l-0.7-0.4C282.6,6,281.2,6,280.1,5.9z"/>
					<path fill="#3F5765" d="M404.3,3.3c-0.2,0-0.5-0.1-0.7-0.1c-0.6,0.1-1.1,0.3-1.6,0.4C402.7,3.5,403.5,3.4,404.3,3.3z"/>
					<path fill="#3F5765" d="M406,1.5l3.2,0.3C408.5,1.7,407.5,1.6,406,1.5z"/>
					<path fill="#3F5765" d="M581.4,0.7l1.9-0.4C580.3,0.3,581.7,0.5,581.4,0.7z"/>
					<path fill="#3F5765" d="M174.4,5.7c2.1,0.2,3.8,0.2,5.2,0.3C177.2,5.7,175.1,5.3,174.4,5.7z"/>
					<path fill="#3F5765" d="M510.7,5.7c1-0.1,1.5-0.2,1.4-0.3C511,5.5,510.4,5.6,510.7,5.7z"/>
					<path fill="#3F5765" d="M185.7,5.9c-0.4,0-0.7-0.1-1.1-0.1c-1.5,0.1-3.1,0.1-5,0.1C181.5,6.1,183.7,6.2,185.7,5.9z"/>
					<path fill="#3F5765" d="M820.8,1.2c0.2,0,0.4,0,0.5,0.1C821.4,1.2,821.1,1.2,820.8,1.2z"/>
					<path fill="#3F5765" d="M128.5,6C127,6,128.3,6.1,128.5,6L128.5,6z"/>
					<path fill="#3F5765" d="M120.9,4.3c0.3,0,0.6-0.1,0.6-0.2C121.4,4.2,121.2,4.2,120.9,4.3z"/>
					<path fill="#3F5765" d="M201.3,3.3c0,0,0.1,0,0.1,0C201,3.2,201.1,3.2,201.3,3.3z"/>
					<path fill="#3F5765" d="M126.2,5.8c0.6,0.1,1.3,0.1,2,0.1C127.9,5.9,127.3,5.9,126.2,5.8z"/>
					<path fill="#3F5765" d="M126.5,6c-0.5,0-1,0-1.4,0C124.9,6,125.1,6.1,126.5,6z"/>
					<path fill="#3F5765" d="M130.7,6c-0.9,0-1.7,0-2.5,0c0.3,0,0.4,0.1,0.4,0.1C129,6,129.7,6,130.7,6z"/>
					<path fill="#3F5765" d="M692.5,2.3c0.1,0,0.2,0,0.3,0C694.4,2.2,693.7,2.2,692.5,2.3z"/>
					<path fill="#3F5765" d="M320.9,1.4c-0.1,0-0.1,0-0.2,0C320.8,1.4,320.9,1.4,320.9,1.4L320.9,1.4z"/>
					<path fill="#3F5765" d="M326.5,1.1c-2.4,0.5-3.8,0.5-5.6,0.4l1.9,1.3L326.5,1.1z"/>
					<path fill="#3F5765" d="M544.4,1l-3.9-0.4c4.8-0.6,8.2-0.4,4.5-1C544.4,1,529.6-0.2,529,1.2l-2.6-0.3c0.7,0,0.9-0.1,1.6-0.1
						c-5.1-0.7-3.8,1-10.3,0.8c-2.3-0.1-3.9-0.3-2.3-0.5l-5.1,0.3c-1.5,0-1.1-0.3,0.4-0.2L503,1.3l0.1,0c-1.1,0.2-3.6,0.5-4.8,0.7
						c-2-0.2,1-0.1,0.5-0.3L494.4,2c-1.7-0.4,1.8-0.7,4.8-0.6c-4-1.4-3.5,0.3-12.2-0.5l4-0.2c-2.6-0.8-5.8-0.5-10.3-1
						c1.1,0.3,9.1,1.2,4.5,1.6c-1.3-0.1-3-0.2-5.5,0.1c0-0.5-2.5-0.4-5.5-0.3l0.2-0.6c-3.3,0.2-3,0.5-5,0.8c-3.7-0.1-4.5-0.6-5.3-1
						c-5.9-0.1,4.1,0.8-2.9,0.9c-4.9-0.2-8.4,0-14.2,0.4c-3.4-0.2,0.6-0.4-0.6-0.6l-3,0.5c-0.7,0-0.5-0.2-0.4-0.2
						c-2.6,0.2-0.2,0.6-4.2,0.8c-1.1,0.7-8.3-1-13.3-0.2c-1.2-0.2,0.6-0.4,0.2-0.6c-6.9,0.5-5.9,0.4-11.5,1.1l-4.8-0.4
						c3.5,0.5-1,1-4.9,1.5c1.2,0.2,2.3,0.4,3,0.5l-6.3,0.3c-0.8-0.1-0.1-0.3,0.9-0.6c-0.4,0.1-0.8,0.1-1.2,0.2
						c-2.2-0.2-1.1-0.6,0.5-1c0.8,0.1,1.5,0.3,2.3,0.4c1.6-0.4,3-0.8,2.7-1.2c-0.4,0.1-1.2,0.1-2.1,0.2c0.4-0.1,0.7-0.2,0.5-0.3
						c-0.2-0.1-0.9,0.1-1.9,0.2l-1.4-0.7L401,1.7l-8.2-0.5c-5.9,0.7-11,1.8-20.4,2.1c2.3-0.5,0.5-0.9,0.6-1.5
						c2.6,0.7,7.2-0.3,12.1-0.1c-2.5-0.1-2-0.4-1.3-0.5l-8.6,0.6c0.2-0.5-1.8-0.4-4.1-0.6c1.7,1-6.4,0.7-10,1
						c-0.2-0.3,0.6-0.7,4.9-0.6c-4.7-0.8-6.1,1.2-10.8,0.5c1,0,1.6,0,2-0.1c-2.4,0.3-8.4,0.1-7-0.2l1,0c-7-0.1-21.2,0-22.2,0.8
						c-0.1-0.1,0.9-1,1.3-1.2L318,4.3c1.1-0.7-3.1-2.5,2.7-2.9c-1.7-0.1-3.7-0.2-7.2,0c1.1,0.1,2.8,1.1,1.3,1.1
						c-4.2-0.8-2.9-0.4-8.2-1.1c1.7,0.2-0.2,1.3-2.9,1.3c0.4-0.2-0.2-1.1,0.8-1.2l-6.7,1.1c1.7-0.2,0.3-1-1.2-1.3
						c0.7,0.2-5.8,0-7.5,0.1l2.8,0.3c-7.5-0.2-7.4,1.6-14.9,1.5c0.9-0.2,2.2-1.4-1.6-1.6c-1.7,0.6-7.7,2.8-14.3,3.2l-1.3-0.3
						l-5.1,0.4c3.2-0.9,12-2.7,16.8-3.4c-2.8-0.3-0.8-0.4-5-0.4c-1.5-0.3,2.3-0.5,3.5-0.5l-9.8-0.2c0.4,0.7-7.5,0.7-7.1,1.2L264,0.9
						c0.4,0.7-6.2,1.9-13.1,1.8c-1.8-0.3,1.3-1.2,1.2-1.4c-0.9,0.2-6.6,0.4-7.2,0.3l2.9-0.4c-3.9-0.3-6.3,0.9-11,0.2
						c-1.6,0-4.8-0.9-5.1-0.5c2.6,0.8,3.1,3.1,1.4,3.7c-0.6-0.1-8.4-0.7-10.3-1.1c-2.6-0.6,4-1.4,1.7-1.9c-0.1,0.2-1.6,0.4-2.2,0.5
						c-1.7-0.2,0.7-0.6-3-0.5c-0.6,0.7-7.4-0.1-1.7,0.6c-3.6,0.2-3.8-0.1-8-0.1c1.3,0.4-3.8,1.5-7.4,1.7c0.2-0.2-0.6-0.4-1-0.5
						c-7.3-0.1-11.3-0.4-18.1-0.4c-0.6-0.2-3.9-0.4-2.5-0.7c-1,0.1-1.9,0.4-4,0.4c-4.1-0.6,4.7-0.1,1.6-0.8
						c-0.3,0.4-5.5,0.5-8.5,0.8c0.9,0.6,6.9,0.1,10-0.1c0,0.8-5.2,1.7-12.4,2.1c-5.7,0.2-2.5-0.5-3.5-0.4c-10.7-0.2-9.1,1.5-18,0.9
						c-3.5-0.5-0.2-1.1-0.9-1.5c4.6-0.2,7.1,0.3,10.3,0.3l-3.9-0.3c1.5-0.2,4.6-0.3,6.3-0.2c-2.9-0.5-18-0.1-26.3-0.6
						c-1.5,0.2-4,0.4-2.8,0.6l2.6-0.1c2.4,0.4-4.9,0.6-1.6,0.8c-3.5,0.3-7.4,0.8-12.3,0.5l-0.9-0.6c0.1,0.2,3.2,0.4,4.6,0.2
						c-2.1,0.3-7.6-0.8-9.8,0l3.5,0.4c-3.5,0.3-7.9,1-12.2,0.8c2,0.6,1-0.1,4.1,0.6c-2.7-0.9,11.2,0,6.8-0.9
						c3.2,0.8,5.5,0.4,9.7,1.1c-0.1-0.2-1.5-0.4,2.2-0.3c0.2-0.1,0.6-0.1,0.8-0.2c0.1,0,0.2,0,0.2,0c-0.1,0-0.1,0-0.2,0
						c0.2,0,0.2,0-0.1,0c-0.9-0.1-1.6-0.2-1.9-0.3c1.8-0.5,7.6-0.4,9.6-0.7c2.2,0.1-0.9,0.2,0.3,0.4l2.9-0.4c0.3,0.4,5.8,0.7,0.7,1
						l4.6,0c2.7,0.3,6.4,0.4,8.8,0.2c2.2,0.1,5.5-0.5,3.6-0.1l7.2-0.3l0.1,0.1c7.1,0.1,14.7-0.7,22.8,0.1c2.4-0.1,4.9-0.2,8.9-0.1
						l0.8,0.4c3.1-0.1,9.3,0.4,10.6,0c3.3,1,15,0.2,20.4,0.4l0.2-0.5c3.7,0,7.3-0.1,11.9-0.3l-0.3-0.4c4-0.4,10.3,0.3,16.6,0.3
						c-0.4,0.2-2,0.1-3.2,0c7.5,1,15.9-0.7,22.8,0c1.7-0.2,2.9-0.1,4.1,0c-0.2,0-0.3,0-0.4,0c0.2,0,0.4,0,0.7,0
						c0.8,0.1,1.5,0.2,2.4,0.2c-0.7-0.1-1.4-0.2-2-0.2c1.3,0,3.3-0.1,5.3-0.2l0.8,0.5c0.2,0,0.3,0,0.5,0c1.9,0.2,1.5-0.2,0.5-0.6
						c1-0.1,1.9-0.2,2.6-0.3c1.6,0.8,5.1-0.3,7.3,0.6c1.3-0.4,9.8-0.3,10.9-1.1c0.1,0.1,0.6,0.2-0.4,0.2c2.2,0.1,4.4,0.2,6.3,0
						l0.9,0.6l4.8-0.8c2.9,0.4,4.1,0.6,1.2,1.1c6.9-0.7,5.6-0.3,11.5-1L330,4.9c2.1,0,5.5-0.5,6.8-0.2c4.7,0.8,23.3,0.1,35.4,0.8
						c-2.3-1.2,5.6,0.5,6.1-0.4c0.7,0.3,2.4,0.4,0.4,0.7c6.2-0.3,9.3,0.4,13.5-0.3c0.7,0.3-1.3,0.4-0.7,0.6c0.5-0.1,2-0.2,2.6-0.1
						c0.6,0.2-0.9,0.2-1.9,0.4c6.3,0,7-0.9,7.4-1.7c3.2,0.4,4.8,0.3,7.1-0.2c1.1,0.3,3,0.5-1,0.6c2.2,0,13.5,0.4,13.7-0.2
						c0.7,0.2,3.1,0,3.7,0c5,0,5.4,0.1,10.2,0l-1.3-0.1c1.9-0.8,4-0.2,8-0.3L440,4.5c9,0.6,3.9-0.3,12.7,0.4l-0.5-0.5
						c0.8-1,7.9,0.6,13,0.2l-1.9-0.3c2.8-0.4,7.9,1.4,10.7,1.5c0.6,0.1-1,0.1-1.8,0.2c7.4,0.6,1-0.6,6.5-0.8c1,0.3-1.3,0.9,2.4,0.9
						c1.8,0.3,10.7-1.1,15.8-0.4c-1.1-0.3-2.2-0.5,0.3-0.7c3.9-0.1,10.6,1,14.1,0.2c0.5,0.1,0.7,0.1,0.7,0.2c3-0.2,9.7-0.3,11.5-0.8
						c2.8,1.7,18.6-0.8,18.6,0.7l9.2-0.1l-0.2,0.2c5.9,0.1,8-0.3,10-0.6c1.4,0.1,0.4,0.2,0.3,0.3c8.6,0.3,9.5,0.2,16.7-0.5l0.8,0.5
						c2-0.3,12.4,0.8,20.9,0.2c-0.1,0.1-0.3,0.2-0.9,0.2c9.5-0.6,22.7,1.4,26.2-0.4l6.3-0.4c-8.1-0.1,1.2-0.8-2.1-1.1
						c3.2-0.1,8.2,0.5,4.3,0.6l-0.6-0.1c-1.4,0.9,10.1,0.3,9.9,1c16,0,31.5,0.5,46.5,0.5L687.5,5l5.2,0c1.4,0.2,1.8,0.6-1.9,0.5
						c2,0.4,6.2-0.3,6.3-0.5c7.3,0.3-2.8,0.9-0.6,0.9l3-0.1l-0.7-0.1c2.5-0.3,2.7-0.6,7.1-0.6c2.8,0.1,1.5,0.5,2.6,0.5
						c0,0.1,0.4,0.1,1.7,0l6.6,0.1l-2.6-0.6c2.9-0.3,6.2,0,3.1-0.6c4.4,1,24.5,0.4,27.2,0.7c4.1-0.4,8.1-0.4,13.1-0.4
						c-1.2-0.1-2-0.8,2.3-0.7c-1.6,1.3,7.9,0.6,11.4,1.6c-3.1-0.6,12.2-0.2,7.4-1.1c3.6,0.1,0.2,0.5,2.9,0.8
						c8.5-0.5,18.8,0.3,29.4,0.2c0.2-0.2-1.6-0.4,0.7-0.7l5.6,0.9c2.1-0.1,1.9-1,5.7-0.4c-0.5-0.1-1.3-0.4,0.1-0.4
						c20.7,0.9,42.3-0.7,63.3,0.9c-2.8-0.3-0.9-0.4,1.2-0.4c-1.4-0.1,0-0.4-0.2-0.7l8.8,0.7c1.6-0.7,9.4,0,10.3-0.7l-2.8,0.1
						c3.7-0.7-5.2-1.7-4.6-2.6c-4.1,0.8-10.9-1.3-17.7-0.1c-1.5-0.2,1.3-0.3,0.5-0.5c-1.7,0.4-3.8,0.5-7.7,0.3l0.4-0.1
						c-10.8,0.1-15.5-0.3-27.7-0.6l0.9,0.5c-2.6-0.1-3.2-0.2-4.4-0.3c-3,0.7,7.4,0,4.6,0.8c-3.5-1-18.5,0-20.8-1.1
						c-4,0,1.2,0.5-2.8,0.5l-1.1-0.3l-1,0.4c-2.6-0.1-4-0.4-4.1-0.7c0.6,0,1.8-0.1,2.5-0.1c-3.4-0.4-9.7,0.1-10.8,0l3.9,0.2
						c-11,0.3-24.4-0.1-35,0.5l0.8,0.2c-8.1,0.4-6.5-0.2-15.4-0.1l0.3-0.1c-1.8,0.2-4.2,0.3-6.6,0.3c2.2-0.3-4.2-0.5-1.3-0.8
						c-8.8,0.4-4.3,0.3-10.2,1.2l-1.3-0.4c-2,0.3-2.1,0.5-6.6,0.6c3.6-0.3-2.8-0.6,1.2-1c-9.3-0.8-13.9,0.8-18.1-0.4
						c-4.3,1,8.1,0.6,5.7,0.8c2,0.3-3.5,0.8-6.5,0.7c-3,0-5.1-1.3-12.6-1.3c0.7,0,0.8-0.1,1.5-0.1c-2.8-0.3-5.5,0.4-8.9-0.1
						c-1.9,0.6-4.5,0-5,0.8l6.9-0.2c-3.9,0.2-7.6,1.1-14,0.7c0.5-0.2,2.4-0.4,3.7-0.5c-1.9-0.2-3.6,0.2-5.6-0.1
						c0.6-0.8,8.4-0.2,12.5-0.8c-2-0.3-7.9,0.6-5.8-0.3c-3,1.1-7.4-0.1-12.5,0.7l0.3-0.5c-0.8,0.1-2.5,0.3-3.9,0.3l2.7-0.6
						c-4.1,0.5-7.9-0.5-11.9-0.2c8.3,0,1.9,0.6,5.3,0.9c-10.2,0.6-5.9-1.2-17.3-1c1.5-0.1,5.8,0.3,3.4,0.5c-2.2-0.1-5-0.3-6.4-0.5
						c-7.6,0.1,1.2,0.5-2.1,0.8c-2.6-0.6-3.7,0.2-7,0.4l0-0.5c-8.6-0.3-2.3,1-10,0.6l3.3-0.7l-4,0.2l0.8-0.5
						c-4.4,0.4-5.8,0.3-10.1,0.1c1,0.3-0.6,0.9-4.4,0.9c-2.6-0.3,1.5-0.5-3.9-0.4c1.2-0.3,2.6-0.7,4.9-0.2c0.2-0.2,1.2-0.3,1.5-0.5
						c-2.8-0.3-7-0.1-9-0.1c0.8,0,1.7,0,2.1,0.1l-7.8,0.7c-1.2-0.2-0.3-0.3,0.7-0.5c-1.6,0.1-2.7,0.3-5,0.3c0.6-0.4,0.5-0.8,3.8-1
						L599.7,1c-0.5-0.2-3.8-0.5-2.9-0.6c-4.1-0.2-10.1,0.8-15.6,0.4c-0.3,0.1-0.9,0.1-2,0.2c-5.2-0.1-9.7-0.6-15.8,0l-3.5-0.7
						c-4.8,0.2,4.7,0.9-3.3,1.1c-5.6,0.2-2.1-0.6-4.1-0.8c-2.8,0.4-7.7,1.1-12.9,0.5C541.4,1,542.7,1.1,544.4,1z M485.3,1.3
						c1.1-0.1,3.4-0.4,4.3-0.1C488.3,1.7,487.3,1.5,485.3,1.3z M395.6,2.4c0.9-0.2,2.2-0.1,3.6,0.1C398.2,2.6,397,2.5,395.6,2.4z
						 M145.7,5.6c0,0,0.1,0,0.1,0C148.4,5.8,147.5,5.7,145.7,5.6z M140.4,5.4c-0.5,0.1-0.5,0.1-0.3,0.2c0.4-0.1,1.6-0.1,2.9-0.1
						C142.7,5.4,142,5.3,140.4,5.4z M709.2,5.6l-1-0.1C710.5,5.3,709.9,5.4,709.2,5.6z"/>
					<path fill="#3F5765" d="M405.8,1.8c0.3,0.1,0.4,0.2,0.5,0.3C406.7,1.9,406.7,1.8,405.8,1.8z"/>
					<path fill="#3F5765" d="M581.1,0.8c0.1,0,0.1,0,0.2,0c0.1,0,0.2-0.1,0.2-0.1L581.1,0.8z"/>
					<path fill="#3F5765" d="M222.5,1.4c1.1,0.1,1.7,0.2,2.1,0.3C224.6,1.5,224.1,1.4,222.5,1.4z"/>
					<path fill="#3F5765" d="M112.3,6.2l3.4-0.1c-1.6,0-2.2-0.1-3.1-0.2C112.8,6,113.4,6.2,112.3,6.2z"/>
					<path fill="#3F5765" d="M82.9,3.2c-0.5,0.1-1.1,0-1.5,0.1l0.1,0.2C83.6,3.5,85.1,3.3,82.9,3.2z"/>
					<path fill="#3F5765" d="M109.2,4.6c-0.3-0.4-2.4-0.3-4.8-0.2c0.1,0,0.3,0,0.4,0C104.1,5,106.7,4.8,109.2,4.6z"/>
					<path fill="#3F5765" d="M103.9,4.4c-0.7,0-1.5,0-2.2,0C101.4,4.7,102.6,4.5,103.9,4.4z"/>
					<path fill="#3F5765" d="M133.7,5.7c-1.1-0.1-0.7,0.5-1.3,0.4C131.1,6.5,139.9,5.4,133.7,5.7z"/>
					<polygon fill="#3F5765" points="107.3,3.3 108.1,3.8 109.5,3.4 					"/>
					<path fill="#3F5765" d="M126,3.6l-3.8-0.1c0.1,0.1-0.4,0.1-1,0.2C123.6,3.7,126.1,3.8,126,3.6z"/>
					<path fill="#3F5765" d="M121.2,3.7c-1.2,0-2.4,0-3.1,0.1C118.8,3.8,120.2,3.7,121.2,3.7z"/>
					<polygon fill="#3F5765" points="112.5,3.1 113.6,3.2 116.3,3.3 					"/>
					<path fill="#3F5765" d="M166.9,3.8l4.1-0.1c0.4-0.2-0.7-0.3-2.3-0.2C167.8,3.5,166.2,3.6,166.9,3.8z"/>
					<path fill="#3F5765" d="M154.3,2.4c1.1,0.1,1.2,0.2,1.8,0.4l0.1-0.6L154.3,2.4z"/>
					<path fill="#3F5765" d="M166.4,2.3c0.4-0.2,6-0.5,0.8-0.5C166.8,2,162.6,2.1,166.4,2.3z"/>
					<polygon fill="#3F5765" points="228.9,3.1 227.8,3.1 228,4.1 					"/>
					<path fill="#3F5765" d="M283.9,0.7c-4.9-0.2-1.2,0.6-5.6,0.3c-1.2,0.2,3.6,0.3,2.4,0.5C283.7,1.2,285.3,1.3,283.9,0.7z"/>
					<path fill="#3F5765" d="M280.8,1.4c-0.5,0-1,0.1-1.5,0.2C280.1,1.5,280.5,1.5,280.8,1.4z"/>
					<path fill="#3F5765" d="M476.6,0l-0.2,0.2c0.5,0.2,1.2,0.2,2.7,0.2L476.6,0z"/>
					<polygon fill="#3F5765" points="519.4,0.5 518.7,0.5 520,1.1 					"/>
					<path fill="#3F5765" d="M555.3-0.2c-1.5,0-3.2,0.1-4.7,0.1C553.9-0.3,555.7,0.5,555.3-0.2z"/>
				</g>
			</g>
		</g>
	</g>
</g>
</svg>
