<?xml version="1.0" encoding="utf-8"?>
<!-- Generator: Adobe Illustrator 19.1.0, SVG Export Plug-In . SVG Version: 6.00 Build 0)  -->
<svg version="1.1" id="Layer_1" xmlns="http://www.w3.org/2000/svg" xmlns:xlink="http://www.w3.org/1999/xlink" x="0px" y="0px"
	 viewBox="0 0 1027.3 31.5" enable-background="new 0 0 1027.3 31.5" xml:space="preserve">
<g>
	<line fill="#2B3A42" x1="-18.3" y1="16.4" x2="1231.7" y2="16.4"/>
	<g>
		<g>
			<g>
				<g>
					<path fill="#2B3A42" d="M500.4,28.2l-2.2,0.6C499.2,28.6,499.9,28.4,500.4,28.2z"/>
					<path fill="#2B3A42" d="M516.2,28.4l0.4-1C515.9,27.9,515.6,28.3,516.2,28.4z"/>
					<path fill="#2B3A42" d="M809,3.9c-3.2-1.8-6.8-4.7-6.4-2.5l1,2.2C805.8,3.2,807.5,3.4,809,3.9z"/>
					<path fill="#2B3A42" d="M646.1,16.8c0.3,0.2,0.6,0.4,0.9,0.7c0.8-0.7,1.5-1.4,2.2-2.1C648.3,15.9,647.2,16.4,646.1,16.8z"/>
					<path fill="#2B3A42" d="M643.9,25.8l-4.2-1.4C640.6,24.9,641.9,25.4,643.9,25.8z"/>
					<path fill="#2B3A42" d="M413.8,30.5l-2.6,2.2C415.2,32.7,413.5,31.6,413.8,30.5z"/>
					<path fill="#2B3A42" d="M947.6,4.5c-2.8-0.8-4.9-1.2-6.9-1.3C944.1,4.4,946.8,6.3,947.6,4.5z"/>
					<path fill="#2B3A42" d="M506.6,5.2c-1.3,0.4-1.9,0.8-1.9,1.3C506.1,6.2,506.9,5.7,506.6,5.2z"/>
					<path fill="#2B3A42" d="M932.8,3.2c0.5,0.2,1,0.3,1.5,0.5c2-0.4,4-0.7,6.5-0.5C938.3,2.2,935.5,1.7,932.8,3.2z"/>
					<path fill="#2B3A42" d="M99.8,28.7c-0.2-0.1-0.5-0.1-0.7-0.3C99,28.8,99.3,28.8,99.8,28.7z"/>
					<path fill="#2B3A42" d="M8.3,6.8c0.9-0.1,2.4-0.1,3.8-0.2C11.4,6.5,10.3,6.5,8.3,6.8z"/>
					<path fill="#2B3A42" d="M1007.9,2.7C1009.9,2.6,1008.2,2.5,1007.9,2.7L1007.9,2.7z"/>
					<path fill="#2B3A42" d="M1017.8,11.3c-0.4,0.2-0.8,0.6-0.8,1.1C1017.2,11.8,1017.5,11.5,1017.8,11.3z"/>
					<path fill="#2B3A42" d="M912.4,16.7c-0.1,0-0.1,0-0.2,0C912.8,17.1,912.7,17,912.4,16.7z"/>
					<path fill="#2B3A42" d="M1010.9,3.7c-0.8-0.3-1.7-0.5-2.6-0.6C1008.7,3.2,1009.5,3.4,1010.9,3.7z"/>
					<path fill="#2B3A42" d="M1010.5,2.7c0.7,0.1,1.3,0.2,1.8,0.2C1012.6,2.5,1012.4,2.3,1010.5,2.7z"/>
					<path fill="#2B3A42" d="M1005,2.8c1.2,0,2.3,0.1,3.3,0.2c-0.4-0.1-0.6-0.3-0.5-0.3C1007.3,2.8,1006.4,2.8,1005,2.8z"/>
					<path fill="#2B3A42" d="M268,22.9c-0.1-0.1-0.3-0.1-0.4-0.2C265.5,23.6,266.4,23.5,268,22.9z"/>
					<path fill="#2B3A42" d="M755.5,26.4c0.1,0,0.1-0.1,0.2-0.1c-0.1,0-0.2-0.1-0.3-0.1L755.5,26.4z"/>
					<path fill="#2B3A42" d="M748.2,28c3.1-2.7,4.9-2.4,7.3-1.8L753,20L748.2,28z"/>
					<path fill="#2B3A42" d="M462.4,28.9l5.2,1.9c-6.3,3.2-10.8,2.1-5.9,4.8c0.7-6.8,20.1-0.7,20.9-7.5l3.4,1.4
						c-1-0.1-1.1,0.3-2.1,0.3c6.6,3.3,4.9-4.9,13.5-3.9c3,0.5,5.1,1.5,3,2.3l6.6-1.7c1.9,0.1,1.5,1.3-0.5,1.2l10.1-0.5l-0.1,0.2
						c1.4-1.1,4.7-2.7,6.3-3.4c2.6,1-1.3,0.7-0.6,1.6l5.6-1.6c2.3,1.8-2.4,3.5-6.2,3.2c5.2,6.8,4.7-1.7,16,2.3l-5.3,0.9
						c3.4,3.9,7.6,2.5,13.5,4.9c-1.4-1.3-12-6.1-5.9-7.7c1.7,0.5,4,0.8,7.3-0.6c0,2.4,3.2,1.8,7.3,1.7l-0.3,3.2c4.3-0.9,4-2.6,6.6-4
						c4.8,0.3,5.8,2.8,7,4.9c7.7,0.5-5.3-4,3.8-4.6c6.4,1.2,11-0.1,18.7-2c4.5,1.1-0.8,2,0.8,2.9l4-2.6c1,0.1,0.7,0.8,0.5,1.2
						c3.4-1,0.3-3.2,5.6-4.1c1.4-3.5,10.9,5.1,17.4,1.1c1.6,0.9-0.8,2-0.3,3.2c9-2.6,7.7-1.9,15.1-5.4l6.3,2.1
						c-4.6-2.4,1.3-5.2,6.5-7.6c-1.6-1.2-3-2.2-4-2.7l8.3-1.7c1,0.5,0.2,1.6-1.2,3c0.6-0.3,1.1-0.5,1.5-0.8c3,1.2,1.4,3-0.7,4.8
						c-1-0.6-2-1.3-3-2c-2,1.9-3.9,4.1-3.5,6c0.5-0.4,1.6-0.7,2.7-0.9c-0.5,0.5-0.9,1-0.6,1.3c0.3,0.3,1.1-0.4,2.5-1.2l1.9,3.6
						l0.5-1.4l10.8,2.2c7.7-3.6,14.4-8.9,26.7-10.3c-3,2.6-0.7,4.3-0.8,7.4c-3.3-3.3-9.5,1.4-15.9,0.7c3.3,0.3,2.6,1.8,1.7,2.3
						l11.3-3c-0.3,2.5,2.4,1.9,5.4,2.9c-2.2-5,8.4-3.3,13.1-4.9c0.3,1.7-0.8,3.4-6.4,3c6.2,3.8,8-5.9,14.1-2.7
						c-1.4,0-2.1-0.2-2.7,0.6c3.2-1.5,11.1-0.3,9.2,1.2l-1.4,0c9.1,0.6,27.8,0,29.1-4.2c0.1,0.5-1.2,5.1-1.7,6l16.3-14.3
						c-1.4,3.7,4.1,12.4-3.5,14.4c2.2,0.5,4.9,1.1,9.4-0.2c-1.5-0.5-3.7-5.3-1.7-5.6c5.6,4.1,3.9,2.2,10.7,5.6
						c-2.2-0.8,0.2-6.5,3.8-6.3c-0.5,0.9,0.3,5.7-1,6.2l8.7-5.6c-2.2,1-0.4,4.8,1.6,6.4c-0.9-1.1,7.6,0.1,9.9-0.5l-3.7-1.3
						c9.9,0.8,9.7-7.9,19.5-7.6c-1.2,1.2-2.9,7.1,2.1,7.9c2.3-2.9,10.1-13.9,18.8-16.1l1.7,1.6l6.6-1.9c-4.1,4.3-15.7,13.5-22.1,17
						c3.7,1.3,1,1.9,6.6,1.8c2,1.5-3,2.3-4.6,2.4l12.9,1c-0.6-3.4,9.8-3.4,9.3-6.2l-14,3.5c-0.6-3.4,8.1-9.5,17.2-8.9
						c2.3,1.3-1.7,6-1.5,7.1c1.2-1.2,8.7-2.2,9.5-1.4l-3.9,1.8c5.1,1.3,8.3-4.5,14.4-1.2c2.1,0.2,6.3,4.3,6.6,2.3
						c-3.4-3.8-4.1-15.7-1.8-18.6c0.7,0.3,11.1,3.7,13.5,5.6c3.5,3-5.2,7.2-2.3,9.8c0.1-0.9,2-2.1,2.8-2.4c2.2,0.8-0.9,2.8,3.9,2.4
						c0.8-3.4,9.8,0.3,2.3-2.9c4.7-1,5,0.7,10.5,0.6c-1.8-2.2,5-7.5,9.7-8.5c-0.3,0.9,0.8,2,1.3,2.5c9.6,0.3,14.8,1.9,23.8,1.9
						c0.8,0.8,5.2,1.8,3.3,3.3c1.3-0.6,2.5-1.8,5.2-1.8c5.4,2.9-6.2,0.5-2.1,4c0.3-2,7.2-2.7,11.1-4c-1.2-3.1-9.1-0.6-13.1,0.6
						c0-4.2,6.9-8.6,16.2-10.6c7.5-1,3.2,2.7,4.5,2.1c14,0.7,11.9-7.4,23.6-4.3c4.6,2.7,0.2,5.3,1.2,7.3c-6.1,1-9.3-1.7-13.5-1.6
						l5.1,1.3c-1.9,0.9-6,1.6-8.2,0.8c3.9,2.4,23.7,0.5,34.5,2.7c1.9-0.9,5.2-1.8,3.7-2.9l-3.4,0.4c-3.1-2.2,6.4-3,2.1-4
						c4.6-1.5,9.7-3.9,16.2-2.7l1.2,3.1c-0.1-0.9-4.2-1.8-6-0.9c2.7-1.4,9.9,4.1,12.9,0.1l-4.5-2.1c4.6-1.5,10.3-4.8,16-3.8
						c-2.6-3-1.3,0.3-5.4-3.2c3.5,4.4-14.6-0.2-9,4.4c-4.2-4.1-7.2-1.7-12.7-5.2c0.2,1,1.9,1.9-2.9,1.4c-0.2,0.3-0.7,0.7-1.1,0.9
						c-0.1,0-0.2,0-0.3-0.1c0.1,0,0.2,0.1,0.3,0.1c-0.2,0.2-0.2,0.2,0.1,0c1.1,0.4,2.1,1,2.4,1.5c-2.4,2.3-10,2.2-12.6,3.4
						c-2.9-0.5,1.2-1.2-0.4-2.2l-3.9,1.8c-0.4-2.2-7.6-3.7-0.9-5l-6-0.1c-3.6-1.3-8.5-1.8-11.5-0.8c-2.9-0.5-7.2,2.5-4.7,0.7
						l-9.5,1.4L964.2,4c-9.4-0.3-19.3,3.7-30-0.3c-3.2,0.6-6.4,1.3-11.7,0.6l-1-1.9c-4,0.7-12.1-1.9-13.9,0.1
						c-4.4-5.2-19.6-1.1-26.7-2.1l-0.3,2.5c-4.9-0.1-9.6,0.6-15.7,1.6l0.4,2.2c-5.2,1.8-13.5-1.6-21.8-1.4c0.6-0.9,2.7-0.6,4.2-0.1
						c-9.9-5.1-20.9,3.7-29.9,0c-2.2,0.8-3.9,0.5-5.4,0c0.2,0,0.4,0,0.6-0.1c-0.2,0-0.6,0-0.9,0c-1-0.4-2-0.8-3.1-1.2
						c0.9,0.5,1.8,1,2.6,1.2c-1.7,0-4.3,0.3-6.9,0.9l-1.1-2.4c-0.2,0-0.4,0-0.6,0.1c-2.5-0.9-2,1.1-0.7,3c-1.3,0.4-2.5,0.9-3.4,1.5
						c-2-3.9-6.7,1.3-9.5-2.8c-1.7,2-12.9,1.5-14.3,5.8c-0.1-0.6-0.8-0.8,0.5-0.9c-2.9-0.5-5.7-1-8.3,0.2l-1.2-3.1l-6.2,4.1
						c-3.8-1.9-5.4-2.9-1.6-5.3c-9.1,3.6-7.4,1.4-15.1,5l0.4-2c-2.8,0.1-7.2,2.7-8.9,1.1c-6.2-3.8-30.6-0.5-46.5-4
						c3.1,5.8-7.4-2.6-8,1.9c-0.9-1.4-3.1-2.2-0.6-3.4c-8.1,1.4-12.2-2.2-17.8,1.6c-0.9-1.4,1.7-2,0.9-2.8c-0.6,0.3-2.6,1.2-3.4,0.4
						c-0.8-0.8,1.2-1.2,2.5-1.8c-8.3,0.2-9.1,4.5-9.7,8.5c-4.2-1.9-6.3-1.6-9.3,1c-1.5-1.3-3.9-2.7,1.2-3.1
						c-2.9-0.2-17.7-1.9-18,1.3c-0.9-0.8-4-0.2-4.8,0.1c-6.5-0.2-7.1-0.5-13.4-0.2l1.8,0.5c-2.5,3.9-5.3,0.9-10.4,1.3l0.1-0.4
						c-11.8-2.8-5.1,1.3-16.7-1.8l0.6,2.4c-1.1,5.2-10.3-3-17.1-1.1l2.4,1.4c-3.7,1.8-10.3-7-14-7.7c-0.8-0.4,1.3-0.7,2.4-1.1
						c-9.7-3-1.3,3.1-8.5,3.9c-1.3-1.7,1.7-4.3-3.1-4.6c-2.4-1.4-14.1,5.5-20.7,2.3c1.5,1.3,2.9,2.6-0.4,3.6
						c-5.1,0.5-13.9-4.9-18.5-0.8c-0.7-0.4-0.9-0.7-0.9-1c-3.9,1.1-12.8,1.8-15.1,4c-3.6-8.3-24.4,4-24.3-3.6l-12.1,0.4l0.3-0.8
						C445.7,6,443,7.9,440.3,9.7c-1.8-0.5-0.5-1.2-0.3-1.6c-11.3-1.5-12.4-1.2-21.9,2.6l-1-2.5c-2.6,1.4-16.3-3.9-27.4-1
						c0.1-0.3,0.3-0.8,1.2-1.1c-12.5,2.9-29.8-6.9-34.4,2.2l-8.2,2.2c10.6,0.7-1.6,3.9,2.8,5.4c-4.2,0.5-10.8-2.7-5.7-3.2l0.8,0.5
						c1.9-4.7-13.2-1.7-12.9-4.9c-20.9,0.2-41.3-2.4-60.9-2.6l2.3,3.7l-6.8-0.2c-1.8-0.9-2.4-2.9,2.5-2.7c-2.6-2.1-8.2,1.7-8.3,2.5
						c-9.6-1.5,3.7-4.3,0.8-4.4l-4,0.3l0.9,0.4c-3.2,1.5-3.5,3.1-9.4,2.9c-3.7-0.7-1.9-2.3-3.4-2.4c0-0.3-0.5-0.4-2.2-0.1L236,5.4
						l3.4,2.9c-3.8,1.4-8.1-0.2-4.1,3.1c-5.8-5-32.1-1.8-35.7-3.4c-5.3,2.1-10.6,2.1-17.2,1.8c1.6,0.6,2.6,3.8-3,3.5
						c2.1-6.7-10.3-2.9-14.9-7.7c4.1,3.2-16,0.8-9.6,5.3c-4.7-0.5-0.3-2.5-3.9-4.1c-11.2,2.6-24.7-1.7-38.5-0.8
						c-0.2,0.9,2.1,2.2-0.9,3.5l-7.3-4.4c-2.7,0.4-2.5,5.1-7.5,2c0.7,0.7,1.8,1.9-0.1,2.1c-27.1-4.3-55.4,3.5-83-4.5
						c3.7,1.7,1.2,1.9-1.6,1.9c1.9,0.4,0,2.2,0.3,3.4L0.9,6.7C-1.3,10-11.5,7-12.7,10.1l3.7-0.6c-4.9,3.7,6.8,8.3,6.1,13.1
						c5.4-4.2,14.3,6.3,23.3,0.2c2,1-1.7,1.5-0.6,2.7c2.3-2.1,5-2.5,10.1-1.6l-0.6,0.5c14.2-0.5,20.3,1.5,36.3,2.9l-1.2-2.4
						c3.4,0.3,4.2,1.1,5.8,1.7c3.9-3.6-9.6-0.2-6.1-4.2c4.6,4.8,24.2,0.1,27.3,5.5c5.3,0-1.5-2.7,3.7-2.7l1.4,1.5l1.3-1.9
						c3.5,0.3,5.2,2.2,5.3,3.4c-0.8-0.1-2.4,0.4-3.3,0.5c4.5,1.7,12.7-0.6,14.2,0l-5.1-0.9c14.4-1.4,32,0.6,45.9-2.5l-1.1-1.1
						c10.6-2.1,8.5,1.2,20.2,0.3l-0.4,0.3c2.3-1.1,5.5-1.7,8.7-1.5c-2.9,1.3,5.5,2.5,1.7,4c11.5-2.2,5.7-1.7,13.3-5.9l1.8,1.9
						c2.6-1.7,2.8-2.6,8.6-3c-4.8,1.6,3.7,2.8-1.6,4.9c12.2,4.1,18.2-4.1,23.8,1.8c5.6-5.1-10.6-2.8-7.4-3.9
						c-2.6-1.7,4.6-3.8,8.5-3.3c3.9,0.1,6.6,6.6,16.5,6.5c-1,0-1,0.4-2,0.3c3.7,1.3,7.2-1.8,11.7,0.4c2.5-3.1,5.9,0.2,6.6-3.8
						l-9,0.9c5.1-1,9.9-5.7,18.3-3.4c-0.7,0.8-3.2,1.8-4.9,2.4c2.5,1.2,4.7-0.8,7.3,0.4c-0.7,4-11,0.9-16.4,3.9
						c2.6,1.7,10.4-2.9,7.6,1.4c4-5.5,9.7,0.7,16.3-3.5l-0.4,2.4c1.1-0.4,3.2-1.5,5.2-1.4l-3.5,3.1c5.4-2.6,10.4,2.3,15.6,0.9
						c-10.8,0.1-2.4-2.9-7-4.6c13.4-3.2,7.7,6.2,22.6,5.1c-2,0.3-7.6-1.4-4.4-2.5c2.8,0.5,6.6,1.4,8.4,2.6c9.9-0.5-1.5-2.4,2.7-3.9
						c3.4,2.9,4.9-1.2,9.2-2.1l0,2.4c11.3,1.5,3-5,13.2-3.2l-4.3,3.3l5.3-0.9l-1.1,2.7c5.8-2,7.6-1.5,13.2-0.7
						c-1.3-1.7,0.7-4.4,5.7-4.5c3.4,1.4-1.9,2.3,5.2,1.9c-1.6,1.5-3.4,3.4-6.4,1.2c-0.3,0.8-1.6,1.5-1.9,2.3
						c3.7,1.6,9.2,0.4,11.8,0.4c-1-0.1-2.2-0.2-2.8-0.6l10.3-3.3c1.6,0.9,0.3,1.6-0.9,2.3c2.1-0.3,3.5-1.4,6.6-1.6
						c-0.8,2-0.6,4-4.9,4.9l9.8-2.2c0.7,0.9,5,2.3,3.8,3.1c5.4,1.2,13.3-3.8,20.5-2.3c0.4-0.4,1.1-0.7,2.7-1
						c6.8,0.4,12.8,2.8,20.8,0.2l4.5,3.5c6.3-0.8-6.2-4.4,4.3-5.8c7.4-1.1,2.8,3,5.4,4c3.7-1.8,10.1-5.4,16.9-2.5
						C466.3,29.1,464.5,28.6,462.4,28.9z M539.8,27.3c-1.5,0.5-4.5,2.1-5.6,0.6C535.9,25.2,537.3,26.5,539.8,27.3z M657.5,21.5
						c-1.1,0.8-2.8,0.4-4.8-0.5C654.1,20.8,655.7,20.9,657.5,21.5z M985.3,4.7c-0.1,0-0.1,0.1-0.2,0.1C981.8,3.9,983,4.2,985.3,4.7z
						 M992.3,5.7c0.7-0.3,0.7-0.7,0.4-1c-0.5,0.6-2,0.7-3.8,0.5C989.3,5.8,990.2,6.3,992.3,5.7z M246.1,6.7l1.4,0.6
						C244.4,8,245.2,7.4,246.1,6.7z"/>
					<path fill="#2B3A42" d="M644.2,24.8c-0.4-0.4-0.5-0.9-0.6-1.3C642.9,23.9,642.9,24.3,644.2,24.8z"/>
					<path fill="#2B3A42" d="M414.2,30.1c-0.1,0-0.2,0-0.2,0c-0.1,0.1-0.2,0.3-0.2,0.4L414.2,30.1z"/>
					<path fill="#2B3A42" d="M884.7,26.2c-1.4-0.3-2.2-0.8-2.8-1.2C881.8,25.5,882.5,26,884.7,26.2z"/>
					<path fill="#2B3A42" d="M1029.1,1.6l-4.5,0.6c2.2-0.1,2.9,0.4,4,0.8C1028.6,2.5,1027.7,1.7,1029.1,1.6z"/>
					<path fill="#2B3A42" d="M1001.1,4.4c1.5,0.5,0.9-2.6,1.8-1.8C1004.5,0,993,5.8,1001.1,4.4z"/>
					<path fill="#2B3A42" d="M1011.1,14.5l5,0.7c-0.1-0.4,0.6-0.7,1.3-0.9C1014.4,14.3,1011,13.8,1011.1,14.5z"/>
					<path fill="#2B3A42" d="M1017.5,14.3c1.6,0,3.1,0,4-0.4C1020.6,14,1018.7,14,1017.5,14.3z"/>
					<polygon fill="#2B3A42" points="1028.9,17.1 1027.5,16.6 1024,16.4 					"/>
					<path fill="#2B3A42" d="M957.6,14l-5.4,0.7c-0.6,0.9,0.9,1.4,3,1C956.4,15.2,958.4,14.8,957.6,14z"/>
					<path fill="#2B3A42" d="M974,20.9c-1.5-0.5-1.6-1.1-2.4-1.9l-0.2,3.1L974,20.9z"/>
					<path fill="#2B3A42" d="M958.2,21.6c-0.5,0.9-7.9,2.5-1,2.3C957.7,23,963.2,22.3,958.2,21.6z"/>
					<polygon fill="#2B3A42" points="876.2,17.7 877.6,17.6 877.4,12.5 					"/>
					<path fill="#2B3A42" d="M804,29.9c6.4,1.2,1.5-3.1,7.4-1.6c1.5-1.2-4.8-1.2-3.2-2.3C804.3,27.2,802.3,26.5,804,29.9z"/>
					<path fill="#2B3A42" d="M808.2,26c0.6-0.2,1.3-0.4,2-0.8C809,25.5,808.5,25.7,808.2,26z"/>
					<polygon fill="#2B3A42" points="495.1,31.4 496.1,31.5 494.3,28.5 					"/>
				</g>
			</g>
		</g>
	</g>
</g>
</svg>
