<?xml version="1.0" encoding="utf-8"?>
<!-- Generator: Adobe Illustrator 19.1.0, SVG Export Plug-In . SVG Version: 6.00 Build 0)  -->
<svg version="1.1" id="Layer_1" xmlns="http://www.w3.org/2000/svg" xmlns:xlink="http://www.w3.org/1999/xlink" x="0px" y="0px"
	 viewBox="0 0 123.1 100" enable-background="new 0 0 123.1 100" xml:space="preserve">
<g transform="translate(-282.32053,-396.30734)">
	<path fill="#BDD4DE" d="M405.4,408.1c-4.5,2-9.4,3.4-14.5,4c5.2-3.1,9.2-8.1,11.1-14c-4.9,2.9-10.3,5-16,6.1
		c-4.6-4.9-11.2-8-18.4-8c-13.9,0-25.2,11.3-25.2,25.2c0,2,0.2,3.9,0.7,5.8c-21-1.1-39.6-11.1-52-26.4c-2.2,3.7-3.4,8.1-3.4,12.7
		c0,8.8,4.5,16.5,11.2,21c-4.1-0.1-8-1.3-11.4-3.2c0,0.1,0,0.2,0,0.3c0,12.2,8.7,22.4,20.3,24.8c-2.1,0.6-4.3,0.9-6.7,0.9
		c-1.6,0-3.2-0.2-4.7-0.5c3.2,10,12.5,17.3,23.6,17.5c-8.6,6.8-19.5,10.8-31.4,10.8c-2,0-4-0.1-6-0.4c11.2,7.2,24.4,11.3,38.7,11.3
		c46.4,0,71.8-38.5,71.8-71.8c0-1.1,0-2.2-0.1-3.3C397.7,417.7,402,413.2,405.4,408.1L405.4,408.1z"/>
</g>
</svg>
